<svg width="772" height="1107" viewBox="0 0 772 1107" fill="none" xmlns="http://www.w3.org/2000/svg">
    <path fill-rule="evenodd" clip-rule="evenodd" d="M185.577 676.232C185.022 674.574 184.468 672.915 183.913 671.809C175.595 654.668 167.278 637.527 159.514 620.386L136.224 570.623C129.57 556.8 121.806 543.529 114.043 530.259C107.944 520.308 101.984 510.357 96.0232 500.405L96.0209 500.401C90.0596 490.448 84.0983 480.496 77.9984 470.543C70.4154 458.256 63.6426 445.162 56.9875 432.295C55.8557 430.107 54.7274 427.925 53.599 425.755C41.3994 402.532 30.8634 378.757 22.5454 353.875C20.8818 350.004 19.2182 346.134 18.1092 342.263C17.0001 340.051 17.0001 337.84 18.6637 335.628C21.4363 332.863 20.3273 330.099 18.6637 327.887C14.4239 319.432 10.5083 310.653 6.66894 302.046L6.66753 302.043C5.48584 299.394 4.31138 296.761 3.13691 294.158C2.85051 293.587 2.5641 293.053 2.28725 292.536L2.2869 292.536C1.49182 291.053 0.775531 289.716 0.364264 288.076C-0.190265 286.97 -0.190316 285.311 0.918742 284.758C2.0278 283.653 3.69142 284.758 4.24595 285.864C6.46407 289.182 8.68214 292.5 10.3457 295.817L10.349 295.823C16.4477 307.433 22.5464 319.042 28.0907 330.652C29.0349 332.534 30.0237 334.417 31.0191 336.313C33.5316 341.097 36.0863 345.962 38.0722 351.11C39.4956 355.368 42.1371 358.816 44.9543 362.494C45.4296 363.115 45.9099 363.742 46.3901 364.38L46.3906 364.381C54.7084 374.886 63.0262 385.392 70.2349 397.003C70.5122 397.28 70.7895 397.418 71.0667 397.556C71.344 397.694 71.6212 397.833 71.8985 398.109C72.9969 395.919 72.6449 393.969 72.2789 391.943C72.0905 390.9 71.8985 389.836 71.8985 388.709C71.8985 387.05 71.8985 385.392 74.1166 384.839C75.7802 383.733 77.4438 384.839 78.5528 385.945C79.9604 386.997 80.9214 388.718 81.8609 390.4C82.4019 391.368 82.9358 392.324 83.5437 393.133C87.1481 398.938 90.6139 404.882 94.0797 410.826C97.5455 416.77 101.011 422.714 104.616 428.52C105.725 430.732 106.834 432.944 109.052 433.496C112.699 434.86 114.472 437.718 116.219 440.535C116.598 441.145 116.975 441.753 117.37 442.343C120.974 448.149 124.579 453.817 128.183 459.484C131.788 465.152 135.392 470.819 138.997 476.625L138.997 476.625C141.215 479.943 143.433 483.26 147.869 483.26C150.642 483.26 152.305 485.472 153.969 487.683C161.953 500.731 170.293 513.602 178.632 526.474L178.634 526.477L178.635 526.477C191.145 545.786 203.655 565.094 214.967 584.999C216.526 587.63 218.112 590.236 219.695 592.838L219.695 592.838C225.431 602.265 231.139 611.646 235.485 622.045C236.594 624.257 237.703 625.916 239.366 627.575C243.52 633.649 247.811 639.86 252.103 646.072L252.12 646.097C256.418 652.318 260.715 658.538 264.875 664.621C268.202 669.597 270.42 675.126 272.638 680.656C281.511 707.749 290.383 734.843 298.701 761.936C301.473 771.888 304.8 781.839 308.127 791.79L308.128 791.794C308.128 792.639 308.775 793.161 309.328 793.607C309.43 793.689 309.528 793.769 309.619 793.847C309.681 793.901 309.739 793.953 309.792 794.006C312.01 792.9 312.01 790.689 312.01 788.477C312.841 782.948 313.535 777.419 314.228 771.89L314.228 771.889C314.921 766.359 315.614 760.83 316.446 755.301C317.555 746.454 315.891 738.16 313.673 729.867C311.732 722.402 309.653 714.799 307.573 707.196C305.494 699.594 303.414 691.991 301.474 684.526C294.819 655.221 283.174 627.022 268.756 600.481C267.177 597.528 265.738 594.505 264.29 591.462L264.289 591.46L264.289 591.46C261.669 585.956 259.018 580.387 255.448 575.046C254.339 573.94 254.339 571.729 254.339 570.623C254.339 568.964 256.002 567.858 257.666 567.858C259.378 568.285 260.43 569.041 261.585 569.873C261.927 570.119 262.277 570.371 262.657 570.623C270.42 577.258 277.074 584.999 282.62 593.293C285.947 597.716 288.719 602.692 291.492 607.668L291.492 607.669L291.494 607.673C298.148 619.283 304.801 630.893 312.01 642.504C314.478 646.933 317.825 651.363 320.877 655.403C321.254 655.901 321.626 656.394 321.991 656.88C323.1 658.539 324.209 659.091 325.873 659.091C326.982 659.091 328.646 659.092 329.2 657.433C330.309 655.221 330.864 652.456 331.418 649.692C332.189 644.697 332.892 639.636 333.599 634.554L333.599 634.553C334.926 625.008 336.263 615.392 338.073 606.01C338.997 600.665 339.859 595.32 340.722 589.975C342.447 579.285 344.172 568.596 346.391 557.906C348.72 548.284 350.45 538.663 352.18 529.042C353.333 522.628 354.487 516.215 355.818 509.801C358.313 498.189 361.086 486.578 363.858 474.966C366.631 463.355 369.404 451.743 371.899 440.132C374.877 426.555 378.835 413.305 382.77 400.13L382.771 400.129L382.771 400.127C383.964 396.132 385.155 392.144 386.317 388.156C391.862 368.804 398.516 350.004 405.171 331.205C411.825 311.852 419.588 293.052 427.906 274.806C436.224 255.453 445.097 236.654 455.078 218.407C465.06 200.16 476.705 183.02 490.568 168.09L507.204 149.844C521.067 134.915 537.149 122.197 553.784 110.586C574.857 95.6567 596.483 82.3864 618.664 70.222C639.182 59.1634 660.254 49.2107 681.326 39.258C686.914 36.6577 692.503 34.085 698.085 31.5153L698.098 31.5093L698.099 31.5088C717.438 22.6059 736.703 13.7375 755.633 3.87049C755.996 3.6896 756.365 3.50213 756.741 3.31167L756.743 3.31022C759.809 1.75454 763.266 0 766.724 0C770.605 0 772.824 2.21172 771.715 5.52929C770.188 10.0953 769.187 14.9232 768.169 19.8327L768.168 19.8336L768.167 19.8408C767.706 22.0629 767.242 24.3018 766.724 26.5406C765.06 35.9404 760.624 43.6814 753.415 50.3166C750.642 53.0812 747.315 55.8458 744.542 58.0576C731.234 68.5632 721.807 82.3865 717.925 98.9744C715.986 107.676 713.199 115.956 710.305 124.551C709.889 125.787 709.471 127.029 709.053 128.28C704.616 141.55 696.299 152.608 685.763 161.455C674.117 170.855 663.027 180.255 651.936 189.655C636.964 202.372 623.101 216.195 612.01 232.783C608.683 237.207 605.91 242.183 603.692 247.159C602.028 251.583 602.028 253.242 605.91 255.453C618.664 263.194 620.883 275.912 620.883 289.735C620.883 292.71 620.617 295.685 620.346 298.725C620.063 301.899 619.773 305.145 619.773 308.534C619.773 326.228 616.446 343.922 611.455 360.51C608.128 372.674 605.91 384.286 605.356 397.003C605.356 408.615 603.692 419.673 601.474 431.285C598.701 442.343 596.483 453.402 595.374 465.013C593.811 480.075 590.781 494.649 587.661 509.652C587.46 510.621 587.258 511.592 587.056 512.565C585.947 519.2 584.838 526.389 584.284 533.024C581.511 556.8 576.52 580.023 570.42 603.246C562.657 633.104 554.893 663.515 547.685 693.926C544.748 706.056 542.764 718.503 540.771 731.026C516.238 731.599 492.837 741.612 475.453 759.027C457.545 776.968 447.49 801.295 447.49 826.654C447.49 852.013 457.545 876.339 475.453 894.28C480.853 899.69 486.834 904.386 493.248 908.306C466.258 916.372 441.378 930.955 420.946 951.093C388.4 983.171 369.748 1026.77 369.002 1072.49C368.992 1073.1 369.015 1073.71 369.07 1074.31C363.203 1075.11 357.292 1075.62 351.381 1076H346.391C321.991 1073.24 299.255 1066.05 278.738 1051.67C275.411 1049.46 272.085 1046.7 268.758 1043.93L268.756 1043.93C241.03 1020.15 224.394 990.296 214.413 955.462C210.531 941.085 207.204 926.709 204.986 912.333C198.886 870.31 188.904 829.394 176.15 789.03C169.804 768.692 163.829 747.984 157.922 727.512L157.915 727.49C156.598 722.923 155.283 718.368 153.969 713.831C152.305 708.302 150.087 702.773 146.76 697.797C139.551 685.632 132.342 673.606 125.133 661.579C117.924 649.553 110.715 637.527 103.507 625.363C97.4072 615.411 91.3077 605.32 85.2082 595.23C79.1081 585.138 73.0079 575.047 66.9078 565.094C66.4156 564.112 65.8264 563.179 65.2406 562.251C63.8463 560.043 62.4715 557.866 62.4715 555.141C62.4715 554.035 63.026 552.929 63.5806 552.376C64.1351 551.823 65.7987 551.823 66.3532 552.376C67.4901 553.132 68.368 554.146 69.1638 555.065C69.5326 555.491 69.8837 555.896 70.2349 556.247C75.2257 562.882 80.2165 569.517 84.6527 576.152C88.3836 581.732 92.6374 586.965 96.9255 592.24C100.286 596.373 103.667 600.532 106.834 604.904C106.941 605.011 107.047 605.138 107.158 605.27C107.622 605.822 108.156 606.457 109.052 606.01C109.441 604.847 109.011 603.955 108.529 602.954C108.323 602.528 108.108 602.082 107.943 601.587C105.759 597.928 103.575 594.284 101.395 590.646C89.7392 571.194 78.2072 551.948 67.4623 531.918C65.6688 528.652 63.8644 525.387 62.0583 522.118L62.051 522.105C51.0152 502.133 39.9159 482.046 30.8634 461.143C29.1998 457.825 27.5361 453.955 26.9816 450.084C26.9816 448.426 27.5362 446.767 29.1998 446.214C30.3088 445.661 31.9724 446.214 32.5269 447.32C34.1905 448.978 35.8541 451.19 37.5177 453.402L37.5196 453.405C44.7279 463.909 51.9361 474.414 58.5898 485.472C62.4715 491.554 66.9077 498.189 71.8985 503.718C73.5621 505.377 75.2257 507.589 76.3348 509.801C79.9393 515.33 83.5438 520.998 87.1482 526.665C90.7526 532.333 94.357 538 97.9614 543.529C99.625 546.294 101.289 548.506 104.616 548.506C106.834 548.506 109.052 550.164 110.161 551.823C110.552 552.343 110.943 552.832 111.327 553.312C112.576 554.876 113.749 556.344 114.597 558.458C121.529 570.346 128.322 582.234 135.115 594.122C141.908 606.01 148.701 617.898 155.632 629.786C159.514 636.422 163.257 642.918 167 649.415C170.743 655.912 174.486 662.409 178.368 669.044C179.456 669.858 180.543 671.07 181.697 672.355C182.895 673.691 184.164 675.105 185.577 676.232ZM185.577 676.232C186.132 678.997 187.241 681.762 190.568 684.526C189.459 680.103 187.795 677.891 185.577 676.232ZM242.694 709.961C242.971 709.961 243.248 709.823 243.525 709.685C243.803 709.546 244.08 709.408 244.357 709.408C244.357 708.302 244.357 707.749 243.803 706.643C237.703 681.209 228.83 656.327 217.74 633.104C216.257 630.012 214.774 626.888 213.283 623.747C208.641 613.967 203.922 604.025 198.886 594.399C193.895 585.552 187.795 577.258 181.141 570.07C181.141 569.728 180.717 569.809 180.132 569.92C179.77 569.989 179.346 570.07 178.923 570.07C179.2 570.623 179.339 571.314 179.477 572.005C179.616 572.696 179.754 573.388 180.032 573.94C181.972 577.811 183.913 581.819 185.854 585.828C187.795 589.837 189.736 593.846 191.677 597.716C203.877 623.151 216.076 648.033 228.83 673.468C232.712 681.209 236.039 689.503 238.257 698.349C239.366 700.193 240.229 702.773 241.174 705.599C241.646 707.012 242.139 708.487 242.694 709.961Z" fill="#f5f5f5"/>
    <path d="M621.51 826.654C621.51 847.514 613.239 867.52 598.515 882.27C583.792 897.021 563.822 905.308 543 905.308C522.178 905.308 502.208 897.021 487.485 882.27C472.761 867.52 464.49 847.514 464.49 826.654C464.49 805.793 472.761 785.788 487.485 771.037C502.208 756.287 522.178 748 543 748C563.822 748 583.792 756.287 598.515 771.037C613.239 785.788 621.51 805.793 621.51 826.654ZM386 1072.77C386.673 1031.5 403.51 992.148 432.88 963.201C462.25 934.253 501.8 918.031 543 918.031C584.2 918.031 623.75 934.253 653.12 963.201C682.49 992.148 699.327 1031.5 700 1072.77C650.745 1095.4 597.186 1107.07 543 1107C486.975 1107 433.797 1094.75 386 1072.77Z" fill="#1447E6"/>
</svg>
