<?xml version="1.0" encoding="utf-8"?>
<!-- Generator: Adobe Illustrator 27.5.0, SVG Export Plug-In . SVG Version: 6.00 Build 0)  -->
<svg version="1.1" xmlns="http://www.w3.org/2000/svg" xmlns:xlink="http://www.w3.org/1999/xlink" x="0px" y="0px"
	 viewBox="0 0 500 500" style="enable-background:new 0 0 500 500;" xml:space="preserve">
<g id="Background_Complete">
	<g>
		<rect y="382.398" style="fill:#EBEBEB;" width="500" height="0.25"/>
		<rect x="416.779" y="398.494" style="fill:#EBEBEB;" width="33.122" height="0.25"/>
		<rect x="322.527" y="401.208" style="fill:#EBEBEB;" width="8.693" height="0.25"/>
		<rect x="396.586" y="389.208" style="fill:#EBEBEB;" width="19.192" height="0.25"/>
		<rect x="52.459" y="390.888" style="fill:#EBEBEB;" width="43.193" height="0.25"/>
		<rect x="104.556" y="390.888" style="fill:#EBEBEB;" width="6.333" height="0.25"/>
		<rect x="131.471" y="395.111" style="fill:#EBEBEB;" width="93.676" height="0.25"/>
		<path style="fill:#EBEBEB;" d="M237.014,337.8H43.915c-3.147,0-5.708-2.561-5.708-5.708V60.66c0-3.147,2.561-5.708,5.708-5.708
			h193.099c3.146,0,5.707,2.561,5.707,5.708v271.432C242.721,335.239,240.16,337.8,237.014,337.8z M43.915,55.203
			c-3.01,0-5.458,2.448-5.458,5.458v271.432c0,3.01,2.448,5.458,5.458,5.458h193.099c3.009,0,5.457-2.448,5.457-5.458V60.66
			c0-3.009-2.448-5.458-5.457-5.458H43.915z"/>
		<path style="fill:#EBEBEB;" d="M453.31,337.8H260.212c-3.147,0-5.707-2.561-5.707-5.708V60.66c0-3.147,2.561-5.708,5.707-5.708
			H453.31c3.148,0,5.708,2.561,5.708,5.708v271.432C459.019,335.239,456.458,337.8,453.31,337.8z M260.212,55.203
			c-3.009,0-5.457,2.448-5.457,5.458v271.432c0,3.01,2.448,5.458,5.457,5.458H453.31c3.01,0,5.458-2.448,5.458-5.458V60.66
			c0-3.009-2.448-5.458-5.458-5.458H260.212z"/>
	</g>
	<g>
		<path style="fill:#E0E0E0;" d="M85.633,102.85c0.11-13.102,10.761-23.69,23.889-23.69c3.163,0,6.18,0.62,8.943,1.737
			c4.692-9.598,14.548-16.211,25.952-16.211c13.791,0,25.315,9.671,28.181,22.599c12.97,0.834,23.233,11.612,23.233,24.792
			c0,13.725-11.126,24.85-24.85,24.85H91.906c-9.729,0-17.616-7.887-17.616-17.616C74.29,111.793,79.002,105.379,85.633,102.85z"/>
		<path style="fill:#E0E0E0;" d="M366.087,297.763c0.068-8.084,6.64-14.618,14.74-14.618c1.952,0,3.813,0.383,5.518,1.072
			c2.895-5.923,8.977-10.003,16.013-10.003c8.509,0,15.621,5.967,17.389,13.945c8.003,0.515,14.335,7.165,14.335,15.298
			c0,8.469-6.865,15.333-15.334,15.333h-48.792c-6.003,0-10.87-4.866-10.87-10.87C359.088,303.281,361.996,299.323,366.087,297.763z
			"/>
		<g>
			<path style="fill:#F0F0F0;" d="M102.151,254.225c0.115-13.734,11.28-24.834,25.041-24.834c3.316,0,6.479,0.65,9.375,1.821
				c4.918-10.062,15.25-16.994,27.204-16.994c14.456,0,26.537,10.138,29.541,23.69c13.596,0.874,24.354,12.172,24.354,25.989
				c0,14.387-11.663,26.05-26.05,26.05h-82.891c-10.198,0-18.466-8.267-18.466-18.466C90.26,263.6,95.2,256.876,102.151,254.225z"/>
			<path style="fill:#E6E6E6;" d="M119.393,277.994c0,2.087-1.692,3.78-3.78,3.78s-3.78-1.692-3.78-3.78
				c0-2.088,1.692-3.78,3.78-3.78S119.393,275.907,119.393,277.994z"/>
			<path style="fill:#FFFFFF;" d="M133.643,277.994c0,2.087-1.692,3.78-3.78,3.78c-2.088,0-3.78-1.692-3.78-3.78
				c0-2.088,1.692-3.78,3.78-3.78C131.951,274.214,133.643,275.907,133.643,277.994z"/>
		</g>
		<g>
			<path style="fill:#F5F5F5;" d="M360.701,133.262c0.08-9.512,7.813-17.2,17.344-17.2c2.296,0,4.487,0.451,6.493,1.261
				c3.406-6.969,10.562-11.769,18.841-11.769c10.012,0,18.38,7.021,20.46,16.407c9.416,0.606,16.867,8.431,16.867,18
				c0,9.964-8.078,18.042-18.042,18.042h-57.409c-7.063,0-12.789-5.726-12.789-12.789
				C352.466,139.755,355.887,135.098,360.701,133.262z"/>
			<path style="fill:#FFFFFF;" d="M413.081,149.023c0,1.35-1.095,2.445-2.445,2.445c-1.35,0-2.445-1.095-2.445-2.445
				c0-1.35,1.095-2.445,2.445-2.445C411.986,146.578,413.081,147.673,413.081,149.023z"/>
			<path style="fill:#FFFFFF;" d="M422.3,149.023c0,1.35-1.095,2.445-2.445,2.445c-1.35,0-2.445-1.095-2.445-2.445
				c0-1.35,1.095-2.445,2.445-2.445C421.205,146.578,422.3,147.673,422.3,149.023z"/>
			<path style="fill:#E6E6E6;" d="M403.862,149.023c0,1.35-1.095,2.445-2.445,2.445c-1.35,0-2.445-1.095-2.445-2.445
				c0-1.35,1.095-2.445,2.445-2.445C402.767,146.578,403.862,147.673,403.862,149.023z"/>
		</g>
	</g>
</g>
<g id="Background_Simple" style="display:none;">
	<g style="display:inline;">
		<path style="fill:#407BFF;" d="M223.33,118.067c-12.65,46.816-7.983,96.155,54.484,110.371
			c46.952,10.686,70.154-46.207,114.311-2.436c78.05,77.369-38.761,179.146-139.891,161.999
			C151.103,370.853,56.905,270.816,79.059,153.674c7.235-38.253,30.42-85.283,71.599-96.004
			C186.45,48.352,234.606,76.337,223.33,118.067z"/>
		<path style="opacity:0.9;fill:#FFFFFF;" d="M223.33,118.067c-12.65,46.816-7.983,96.155,54.484,110.371
			c46.952,10.686,70.154-46.207,114.311-2.436c78.05,77.369-38.761,179.146-139.891,161.999
			C151.103,370.853,56.905,270.816,79.059,153.674c7.235-38.253,30.42-85.283,71.599-96.004
			C186.45,48.352,234.606,76.337,223.33,118.067z"/>
	</g>
</g>
<g id="Shadow_1_">
	<ellipse id="_x3C_Path_x3E__154_" style="fill:#F5F5F5;" cx="250" cy="416.238" rx="193.889" ry="11.323"/>
</g>
<g id="Cloud">
	<g>
		<g>
			<path style="fill:#407BFF;" d="M201.445,97.429h-18.389c-24.403,0-45.325,14.85-54.258,36h-14.631
				c-27.86,0-50.444,22.585-50.444,50.445c0,27.859,22.585,50.444,50.444,50.444h87.278L201.445,97.429z"/>
			<path style="fill:#407BFF;" d="M157.993,100.258l-0.408-0.913c2.293-1.024,4.674-1.919,7.076-2.658l0.294,0.955
				C162.591,98.37,160.249,99.25,157.993,100.258z"/>
			<path style="fill:#407BFF;" d="M135.173,117.885l-0.78-0.626c4.613-5.757,10.158-10.606,16.479-14.411l0.516,0.857
				C145.168,107.449,139.713,112.22,135.173,117.885z"/>
			<path style="opacity:0.2;" d="M201.445,97.429h-18.389c-24.403,0-45.325,14.85-54.258,36h-14.631
				c-27.86,0-50.444,22.585-50.444,50.445c0,27.859,22.585,50.444,50.444,50.444h87.278L201.445,97.429z"/>
			<g>
				<path style="opacity:0.5;fill:#407BFF;" d="M132.29,126.5h26.38l19.5-17.33h-30.38C141.55,113.85,136.26,119.74,132.29,126.5z"
					/>
				<path style="opacity:0.5;fill:#407BFF;" d="M72.34,155.67c-3.5,5.17-6.06,11.03-7.44,17.33H95v-17.33H72.34z"/>
				<path style="opacity:0.5;fill:#407BFF;" d="M195.83,101.47h-34.24c-3.68,1.44-7.19,3.24-10.46,5.36h25.2L195.83,101.47z"/>
			</g>
		</g>
		<path style="fill:#407BFF;" d="M301.857,172.231c-5.037-21.311-23.58-37.395-46.101-38.707
			c-8.91-21.203-29.87-36.095-54.311-36.095c-25.143,0-46.593,15.763-55.04,37.941c-4.402-1.254-9.044-1.941-13.849-1.941
			c-27.86,0-50.444,22.585-50.444,50.445c0,27.859,22.585,50.444,50.444,50.444h160.66c17.478,0,31.646-14.168,31.646-31.646
			C324.861,188.192,315.132,175.992,301.857,172.231z"/>
		<g>
			<path style="opacity:0.2;" d="M300.77,176.082l-2.27-0.64l-0.54-2.29c-4.68-19.8-22.13-34.45-42.44-35.64l-2.49-0.14l-0.96-2.3
				c-8.59-20.44-28.46-33.64-50.63-33.64c-0.71,0-1.41,0.01-2.11,0.04c21.3,0.82,40.18,13.82,48.49,33.6l0.96,2.3l2.49,0.14
				c20.31,1.19,37.76,15.84,42.44,35.64l0.54,2.29l2.27,0.64c11.83,3.35,20.09,14.28,20.09,26.59c0,15.24-12.4,27.65-27.64,27.65
				h4.25c15.24,0,27.64-12.41,27.64-27.65C320.86,190.363,312.6,179.432,300.77,176.082z"/>
			<path style="fill:#FFFFFF;" d="M296.52,176.082l-2.27-0.64l-0.54-2.29c-4.68-19.8-22.13-34.45-42.44-35.64l-2.49-0.14l-0.96-2.3
				c-8.31-19.78-27.19-32.78-48.49-33.6h-0.07c-21.76,0.88-41.32,14.85-49.12,35.32l-1.3,3.43l-3.53-1.01
				c-0.1-0.03-0.21-0.06-0.31-0.08c-4.06-1.13-8.26-1.7-12.44-1.7c-0.73,0-1.45,0.02-2.18,0.05c-24.6,1.14-44.27,21.51-44.27,46.39
				c0,25.61,20.84,46.45,46.45,46.45h156.41c15.24,0,27.64-12.41,27.64-27.65C316.61,190.363,308.35,179.432,296.52,176.082z"/>
			<polygon style="fill:#407BFF;" points="181.359,170.717 181.359,210.413 221.361,210.413 221.361,170.717 234,170.717 
				201.361,134.032 168.72,170.717 			"/>
		</g>
	</g>
	<g>
		<path style="fill:#407BFF;" d="M175.358,287.093h-2.049c-2.871,0-5.198-2.327-5.198-5.198v-20.559h12.445v20.559
			C180.556,284.766,178.228,287.093,175.358,287.093z"/>
		<path style="opacity:0.2;" d="M175.358,287.093h-2.049c-2.871,0-5.198-2.327-5.198-5.198v-20.559h12.445v20.559
			C180.556,284.766,178.228,287.093,175.358,287.093z"/>
		<path style="fill:#407BFF;" d="M176.272,267.735h-3.878c-5.434,0-9.839-4.405-9.839-9.839v-23.578h23.555v23.578
			C186.111,263.33,181.706,267.735,176.272,267.735z"/>
		<polygon style="opacity:0.2;" points="186.111,240.222 162.556,243.778 162.556,234.318 186.111,234.318 		"/>
		<circle style="fill:#FFFFFF;" cx="181.167" cy="252.083" r="3.125"/>
		<circle style="opacity:0.5;fill:#FFFFFF;" cx="172.833" cy="252.083" r="3.125"/>
		<path style="fill:#407BFF;" d="M252.778,321.667h-52.444c-15.715,0-28.5-12.785-28.5-28.5v-6.074h5v6.074
			c0,12.958,10.542,23.5,23.5,23.5h52.444V321.667z"/>
	</g>
</g>
<g id="Server">
	<g>
		<g>
			<path style="fill:#407BFF;" d="M375.189,196.333h-85.944c-7.173,0-13.041,5.868-13.041,13.041v193.822
				c0,7.173,5.868,13.041,13.041,13.041h85.944c7.173,0,13.041-5.868,13.041-13.041V209.374
				C388.23,202.202,382.362,196.333,375.189,196.333z"/>
			<path style="opacity:0.2;" d="M375.189,196.333h-85.944c-7.173,0-13.041,5.868-13.041,13.041v193.822
				c0,7.173,5.868,13.041,13.041,13.041h85.944c7.173,0,13.041-5.868,13.041-13.041V209.374
				C388.23,202.202,382.362,196.333,375.189,196.333z"/>
		</g>
		<path style="fill:#407BFF;" d="M351.763,196.333h-85.944c-7.173,0-13.041,5.868-13.041,13.041v193.822
			c0,7.173,5.868,13.041,13.041,13.041h85.944c7.173,0,13.041-5.868,13.041-13.041V209.374
			C364.805,202.202,358.936,196.333,351.763,196.333z"/>
		<path style="opacity:0.2;" d="M265.819,411.891c-4.794,0-8.694-3.9-8.694-8.694V209.375c0-4.794,3.9-8.694,8.694-8.694h85.944
			c4.794,0,8.694,3.9,8.694,8.694v193.822c0,4.794-3.9,8.694-8.694,8.694H265.819z"/>
		<path style="fill:#FFFFFF;" d="M269.864,411.891c-4.794,0-8.694-3.9-8.694-8.694V209.375c0-4.794,3.9-8.694,8.694-8.694h81.899
			c4.794,0,8.694,3.9,8.694,8.694v193.822c0,4.794-3.9,8.694-8.694,8.694H269.864z"/>
		<g>
			<path style="opacity:0.3;fill:#407BFF;" d="M346.933,226.107h-72.239c-3.719,0-6.762-3.043-6.762-6.762l0,0
				c0-3.719,3.043-6.762,6.762-6.762h72.239c3.719,0,6.762,3.043,6.762,6.762l0,0C353.695,223.064,350.652,226.107,346.933,226.107z
				"/>
			<path style="fill:#FFFFFF;" d="M323.115,220.824h-49.508c-0.814,0-1.479-0.666-1.479-1.479l0,0c0-0.814,0.666-1.479,1.479-1.479
				h49.508c0.814,0,1.479,0.666,1.479,1.479l0,0C324.594,220.159,323.929,220.824,323.115,220.824z"/>
			<circle style="fill:#407BFF;" cx="340.986" cy="219.345" r="1.479"/>
			<circle style="fill:#407BFF;" cx="347.507" cy="219.345" r="1.479"/>
			<circle style="fill:#407BFF;" cx="334.466" cy="219.345" r="1.479"/>
		</g>
		<g>
			<path style="opacity:0.3;fill:#407BFF;" d="M346.933,247.842h-72.239c-3.719,0-6.762-3.043-6.762-6.762l0,0
				c0-3.719,3.043-6.762,6.762-6.762h72.239c3.719,0,6.762,3.043,6.762,6.762l0,0C353.695,244.799,350.652,247.842,346.933,247.842z
				"/>
			<path style="fill:#FFFFFF;" d="M323.115,242.559h-49.508c-0.814,0-1.479-0.666-1.479-1.479l0,0c0-0.814,0.666-1.479,1.479-1.479
				h49.508c0.814,0,1.479,0.666,1.479,1.479l0,0C324.594,241.894,323.929,242.559,323.115,242.559z"/>
			<circle style="fill:#407BFF;" cx="340.986" cy="241.08" r="1.479"/>
			<circle style="fill:#407BFF;" cx="347.507" cy="241.08" r="1.479"/>
			<circle style="opacity:0.3;fill:#407BFF;" cx="334.466" cy="241.08" r="1.479"/>
		</g>
		<g>
			<path style="opacity:0.3;fill:#407BFF;" d="M346.933,269.577h-72.239c-3.719,0-6.762-3.043-6.762-6.762l0,0
				c0-3.719,3.043-6.762,6.762-6.762h72.239c3.719,0,6.762,3.043,6.762,6.762l0,0C353.695,266.534,350.652,269.577,346.933,269.577z
				"/>
			<path style="fill:#FFFFFF;" d="M323.115,264.295h-49.508c-0.814,0-1.479-0.666-1.479-1.479l0,0c0-0.814,0.666-1.479,1.479-1.479
				h49.508c0.814,0,1.479,0.666,1.479,1.479l0,0C324.594,263.629,323.929,264.295,323.115,264.295z"/>
			<circle style="fill:#407BFF;" cx="340.986" cy="262.815" r="1.479"/>
			<circle style="fill:#407BFF;" cx="347.507" cy="262.815" r="1.479"/>
			<circle style="opacity:0.6;fill:#407BFF;" cx="334.466" cy="262.815" r="1.479"/>
		</g>
		<g>
			<path style="opacity:0.3;fill:#407BFF;" d="M346.933,291.313h-72.239c-3.719,0-6.762-3.043-6.762-6.762v0
				c0-3.719,3.043-6.762,6.762-6.762h72.239c3.719,0,6.762,3.043,6.762,6.762v0C353.695,288.27,350.652,291.313,346.933,291.313z"/>
			<path style="fill:#FFFFFF;" d="M323.115,286.03h-49.508c-0.814,0-1.479-0.666-1.479-1.479l0,0c0-0.814,0.666-1.479,1.479-1.479
				h49.508c0.814,0,1.479,0.666,1.479,1.479l0,0C324.594,285.364,323.929,286.03,323.115,286.03z"/>
			<circle style="fill:#407BFF;" cx="340.986" cy="284.551" r="1.479"/>
			<circle style="opacity:0.3;fill:#407BFF;" cx="347.507" cy="284.551" r="1.479"/>
			<circle style="opacity:0.6;fill:#407BFF;" cx="334.466" cy="284.551" r="1.479"/>
		</g>
		<g>
			<path style="opacity:0.3;fill:#407BFF;" d="M346.933,313.048h-72.239c-3.719,0-6.762-3.043-6.762-6.762l0,0
				c0-3.719,3.043-6.762,6.762-6.762h72.239c3.719,0,6.762,3.043,6.762,6.762l0,0C353.695,310.005,350.652,313.048,346.933,313.048z
				"/>
			<path style="fill:#FFFFFF;" d="M323.115,307.765h-49.508c-0.814,0-1.479-0.666-1.479-1.479l0,0c0-0.814,0.666-1.479,1.479-1.479
				h49.508c0.814,0,1.479,0.666,1.479,1.479l0,0C324.594,307.099,323.929,307.765,323.115,307.765z"/>
			<circle style="fill:#407BFF;" cx="340.986" cy="306.286" r="1.479"/>
			<circle style="opacity:0.6;fill:#407BFF;" cx="347.507" cy="306.286" r="1.479"/>
			<circle style="fill:#407BFF;" cx="334.466" cy="306.286" r="1.479"/>
		</g>
		<g>
			<path style="opacity:0.3;fill:#407BFF;" d="M346.933,334.783h-72.239c-3.719,0-6.762-3.043-6.762-6.762l0,0
				c0-3.719,3.043-6.762,6.762-6.762h72.239c3.719,0,6.762,3.043,6.762,6.762l0,0C353.695,331.74,350.652,334.783,346.933,334.783z"
				/>
			<path style="fill:#FFFFFF;" d="M323.115,329.5h-49.508c-0.814,0-1.479-0.666-1.479-1.479l0,0c0-0.814,0.666-1.479,1.479-1.479
				h49.508c0.814,0,1.479,0.666,1.479,1.479l0,0C324.594,328.835,323.929,329.5,323.115,329.5z"/>
			<circle style="opacity:0.3;fill:#407BFF;" cx="340.986" cy="328.021" r="1.479"/>
			<circle style="fill:#407BFF;" cx="347.507" cy="328.021" r="1.479"/>
			<circle style="fill:#407BFF;" cx="334.466" cy="328.021" r="1.479"/>
		</g>
		<g>
			<path style="opacity:0.3;fill:#407BFF;" d="M346.933,356.518h-72.239c-3.719,0-6.762-3.043-6.762-6.762l0,0
				c0-3.719,3.043-6.762,6.762-6.762h72.239c3.719,0,6.762,3.043,6.762,6.762l0,0C353.695,353.475,350.652,356.518,346.933,356.518z
				"/>
			<path style="fill:#FFFFFF;" d="M323.115,351.235h-49.508c-0.814,0-1.479-0.666-1.479-1.479l0,0c0-0.814,0.666-1.479,1.479-1.479
				h49.508c0.814,0,1.479,0.666,1.479,1.479l0,0C324.594,350.57,323.929,351.235,323.115,351.235z"/>
			<circle style="opacity:0.3;fill:#407BFF;" cx="340.986" cy="349.756" r="1.479"/>
			<circle style="fill:#407BFF;" cx="347.507" cy="349.756" r="1.479"/>
			<circle style="opacity:0.3;fill:#407BFF;" cx="334.466" cy="349.756" r="1.479"/>
		</g>
		<g>
			<path style="opacity:0.3;fill:#407BFF;" d="M346.933,378.253h-72.239c-3.719,0-6.762-3.043-6.762-6.762v0
				c0-3.719,3.043-6.762,6.762-6.762h72.239c3.719,0,6.762,3.043,6.762,6.762v0C353.695,375.21,350.652,378.253,346.933,378.253z"/>
			<path style="fill:#FFFFFF;" d="M323.115,372.97h-49.508c-0.814,0-1.479-0.666-1.479-1.479l0,0c0-0.814,0.666-1.479,1.479-1.479
				h49.508c0.814,0,1.479,0.666,1.479,1.479l0,0C324.594,372.305,323.929,372.97,323.115,372.97z"/>
			<circle style="fill:#407BFF;" cx="340.986" cy="371.491" r="1.479"/>
			<circle style="fill:#407BFF;" cx="347.507" cy="371.491" r="1.479"/>
			<circle style="fill:#407BFF;" cx="334.466" cy="371.491" r="1.479"/>
		</g>
		<g>
			<path style="opacity:0.3;fill:#407BFF;" d="M346.933,399.988h-72.239c-3.719,0-6.762-3.043-6.762-6.762l0,0
				c0-3.719,3.043-6.762,6.762-6.762h72.239c3.719,0,6.762,3.043,6.762,6.762l0,0C353.695,396.946,350.652,399.988,346.933,399.988z
				"/>
			<path style="fill:#FFFFFF;" d="M323.115,394.706h-49.508c-0.814,0-1.479-0.666-1.479-1.479l0,0c0-0.814,0.666-1.479,1.479-1.479
				h49.508c0.814,0,1.479,0.666,1.479,1.479l0,0C324.594,394.04,323.929,394.706,323.115,394.706z"/>
			<circle style="fill:#407BFF;" cx="340.986" cy="393.226" r="1.479"/>
			<circle style="fill:#407BFF;" cx="347.507" cy="393.226" r="1.479"/>
			<circle style="opacity:0.6;fill:#407BFF;" cx="334.466" cy="393.226" r="1.479"/>
		</g>
		<path style="opacity:0.2;" d="M381.573,260.159h-10.112c-1.631,0-2.965-1.335-2.965-2.966v-12.492
			c0-1.631,1.335-2.965,2.965-2.965h10.112c1.631,0,2.966,1.335,2.966,2.965v12.492
			C384.539,258.824,383.204,260.159,381.573,260.159z"/>
	</g>
</g>
<g id="Character_1_">
	<g>
		<g>
			<g>
				<g>
					<polygon style="fill:#CE7A63;" points="262.917,195.198 274.229,200.114 267.743,207.682 258.285,203.583 					"/>
					<polygon style="opacity:0.2;" points="262.918,195.202 274.233,200.12 270.6,204.356 260.322,199.897 					"/>
				</g>
				<g>
					<path style="fill:#263238;" d="M269.188,211.678l-1.267-0.341c-0.754-0.203-1.358-0.769-1.608-1.509l0,0l-0.83,0.351
						c-0.48,0.203-1.015,0.24-1.519,0.105l-17.288-4.65c0.107-1.563,1.557-3.25,1.557-3.25s7.705,1.637,10.022-0.128
						c0.178-0.136,0.411-0.173,0.611-0.072c1.382,0.701,6.839,3.334,10.411,3.133c0.474-0.027,0.825,0.423,0.714,0.885
						C269.38,208.739,269.188,211.678,269.188,211.678z"/>
				</g>
			</g>
			<path style="fill:#263238;" d="M364.544,159.597l-4.846,10.147c-7.149,14.978-24.766,22.508-38.832,16.616
				c-8.211-3.447-17.177-10.723-23.279-14.051c-5.22,11.434-14.986,24.049-22.463,32.827l-15.12-7.613
				c5.646-12.959,14.44-33.201,20.018-46.347c2.026-4.763,6.76-8.031,11.755-8.166C316.918,142.331,364.544,159.597,364.544,159.597
				z"/>
			<g>
				<g>
					<polygon style="fill:#CE7A63;" points="291.718,228.353 302.588,227.873 300.579,239.813 291.494,240.228 					"/>
					<polygon style="opacity:0.2;" points="291.72,228.357 302.594,227.876 301.767,232.785 291.623,233.445 					"/>
				</g>
				<g>
					<path style="fill:#263238;" d="M304.747,240.358l-1.252,0.393c-0.746,0.234-1.559,0.08-2.167-0.41l0,0l-0.512,0.742
						c-0.296,0.429-0.727,0.747-1.225,0.904l-17.082,5.359c-0.749-1.376-0.431-3.578-0.431-3.578s7.38-2.755,8.387-5.488
						c0.078-0.211,0.254-0.367,0.477-0.389c1.542-0.151,7.559-0.859,10.466-2.946c0.385-0.277,0.923-0.086,1.078,0.363
						C303.333,237.775,304.747,240.358,304.747,240.358z"/>
				</g>
			</g>
			<path style="fill:#263238;" d="M371.588,155.581l-0.082,10.716c-0.127,15.808-13.527,29.919-29.53,31.108
				c-9.34,0.688-21.962,0.905-29.246,0.763c-1.062,11.067-4.52,24.109-8.001,33.561l-15.734-1.1
				c-0.411-13.415-1.017-32.439-1.525-45.054c-0.195-4.92,2.849-9.758,7.545-12.069
				C318.608,161.893,371.588,155.581,371.588,155.581z"/>
			<path style="opacity:0.1;" d="M301.382,231.869c-0.036,0-0.073-0.005-0.109-0.016c-0.197-0.06-0.309-0.269-0.249-0.466
				c2.379-7.821,6.664-32.238,6.855-43.439c0.002-0.107,0.049-0.208,0.13-0.277c0.081-0.07,0.186-0.102,0.293-0.087
				c22.984,3.057,38.55,2.018,45.015-3.006c11.356-8.824,11.194-23.107,8.314-30.555c-0.075-0.193,0.021-0.409,0.214-0.483
				c0.193-0.075,0.409,0.021,0.483,0.214c2.96,7.656,3.126,22.341-8.553,31.415c-6.681,5.192-21.87,6.272-45.159,3.211
				c-0.288,11.433-4.518,35.463-6.878,43.226C301.691,231.765,301.543,231.869,301.382,231.869z"/>
			<path style="opacity:0.2;" d="M296.971,173.625c-2.467,5.122-5.787,10.439-9.354,15.509c0.079,2.213,0.165,4.562,0.255,6.999
				c5.568-8.794,9.108-22.523,9.108-22.523S296.98,173.618,296.971,173.625z"/>
			<g>
				<path style="fill:#CE7A63;" d="M337.677,105.14c-0.423,1.548-0.821,2.896-1.283,4.314c-0.439,1.405-0.931,2.787-1.423,4.172
					c-1.012,2.761-2.06,5.512-3.281,8.232c-1.205,2.73-2.471,5.438-3.974,8.14c-1.477,2.715-3.121,5.398-5.176,8.118l-0.643,0.851
					c-0.409,0.541-0.942,0.961-1.513,1.238c-1.107,0.532-2.249,0.973-3.395,1.343c-1.137,0.394-2.321,0.642-3.483,0.875
					c-1.177,0.202-2.36,0.333-3.558,0.368c-0.597,0.022-1.205,0.002-1.81-0.02l-0.928-0.074c-0.329-0.032-0.598-0.09-1.033-0.116
					c-1.927-0.112-3.398-1.766-3.286-3.692c0.02-0.338,0.087-0.663,0.195-0.967l1.326-3.675c0.049-0.135,0.26-0.313,0.411-0.475
					l0.504-0.478l1.022-0.934c0.676-0.617,1.347-1.199,1.985-1.798c0.653-0.565,1.264-1.168,1.872-1.719
					c0.612-0.55,1.165-1.142,1.737-1.668l-2.156,2.088c1.126-1.935,2.181-4.211,3.219-6.534l0.757-1.774l0.721-1.824
					c0.493-1.212,0.97-2.448,1.431-3.694c0.919-2.492,1.828-5.026,2.697-7.574l2.566-7.57l0.061-0.181
					c1.525-4.499,6.408-6.909,10.906-5.384C336.469,96.192,338.857,100.79,337.677,105.14z"/>
			</g>
			<path style="fill:#407BFF;" d="M329.426,91.065c-4.565,1.31-10.706,6.351-12.816,17.768c3.057,4.75,17.412,1.083,17.412,1.083
				L329.426,91.065z"/>
			<path style="fill:#CE7A63;" d="M307.95,134.355l0.464,4.943c-1.384,5.03-7.543,2.131-7.543,2.131l-3.524-0.197
				c-1.195-0.067-2.173-1.125-2.313-2.5l-0.351-3.453c-0.16-1.574,0.828-2.989,2.191-3.137l3.062-0.332
				c0.891-0.097,1.792,0.029,2.623,0.365L307.95,134.355z"/>
			<path style="fill:#407BFF;" d="M331.638,90.382c7.174-1.535,15.423-2.686,22.798-3.098c8.423-0.471,15.431,6.34,15.216,14.772
				c-0.643,25.187,2.903,51.668,2.4,56.524c0,0-53.11,7.646-61.253-8.14c-3.42-22.39,7.632-19.537,8.517-45.245
				C319.548,98.46,325.049,91.792,331.638,90.382z"/>
			<path style="fill:#FFFFFF;" d="M327.45,113.149l0.179-0.051l0.032-0.193c0.277-1.666,1.606-2.88,3.233-2.953l0.199-0.008
				l0.066-0.193c0.569-1.659,2.021-2.732,3.729-2.773l0.006,0c1.754,0.103,3.396,1.309,4.126,3.048l0.122,0.291l0.279-0.081
				c0.008-0.002,0.017-0.005,0.025-0.006c0.321-0.09,0.655-0.133,0.992-0.127c0.059,0.001,0.117,0.004,0.175,0.007
				c1.983,0.129,3.667,1.876,3.792,3.977c0.129,2.163-1.442,3.895-3.501,3.861l-12.573-0.209c-1.225-0.02-2.284-1.085-2.361-2.372
				C325.907,114.328,326.516,113.416,327.45,113.149z"/>
			<g>
				<path style="fill:#CE7A63;" d="M369.083,95.834l0.485,1.078l0.424,0.981c0.276,0.65,0.522,1.301,0.774,1.95
					c0.503,1.296,0.938,2.61,1.368,3.928c0.832,2.643,1.562,5.333,2.111,8.102c0.276,1.385,0.521,2.787,0.731,4.206
					c0.187,1.426,0.333,2.873,0.437,4.338c0.208,2.939,0.158,5.984-0.259,9.15l-0.097,0.737c-0.128,0.97-0.492,1.88-1.003,2.642
					c-1.107,1.637-2.223,2.826-3.349,3.839c-1.124,1.01-2.234,1.859-3.337,2.638c-2.199,1.544-4.426,2.733-6.632,3.834
					c-2.225,1.065-4.452,2.001-6.713,2.81c-2.282,0.806-4.498,1.507-6.941,2.068c-2.337,0.536-4.666-0.923-5.202-3.26
					c-0.385-1.68,0.26-3.355,1.521-4.364l0.184-0.145c1.67-1.331,3.495-2.677,5.2-4.014c1.725-1.337,3.42-2.669,5.02-4.025
					c1.616-1.325,3.117-2.72,4.425-4.04c0.642-0.662,1.222-1.323,1.676-1.936c0.447-0.611,0.799-1.165,0.873-1.462l-1.1,3.379
					c-0.01-1.903-0.247-3.958-0.582-6.071c-0.372-2.115-0.867-4.283-1.447-6.468c-0.611-2.18-1.259-4.386-2.009-6.573
					c-0.359-1.098-0.761-2.184-1.14-3.271l-1.139-3.072l-0.172-0.464c-1.65-4.45,0.619-9.394,5.068-11.045
					C362.516,89.724,367.238,91.76,369.083,95.834z"/>
			</g>
			<path style="fill:#407BFF;" d="M357.229,87.396c3.667,0.406,11.438,3.159,16.549,13.691
				c-5.018,9.917-18.111,13.691-18.111,13.691S346.556,92.667,357.229,87.396z"/>
			<g>
				<g>
					<g>
						<path style="fill:#407BFF;" d="M327.244,158.473h-43.168c-1.88,0-2.28-0.435-0.888-0.966l19.695-7.518
							c1.392-0.531,4.069-0.966,5.949-0.966h43.168c1.88,0,2.28,0.435,0.888,0.966l-19.695,7.518
							C331.801,158.038,329.124,158.473,327.244,158.473z"/>
						<path style="opacity:0.4;" d="M327.244,158.473h-43.168c-1.88,0-2.28-0.435-0.888-0.966l19.695-7.518
							c1.392-0.531,4.069-0.966,5.949-0.966h43.168c1.88,0,2.28,0.435,0.888,0.966l-19.695,7.518
							C331.801,158.038,329.124,158.473,327.244,158.473z"/>
					</g>
				</g>
				<g>
					<g>
						<path style="fill:#407BFF;" d="M327.244,156.689h-43.168c-1.88,0-3.701-1.538-4.046-3.418l-4.888-26.605
							c-0.345-1.88,0.91-3.418,2.79-3.418H321.1c1.88,0,3.701,1.538,4.046,3.418l4.888,26.605
							C330.38,155.151,329.124,156.689,327.244,156.689z"/>
						<path style="opacity:0.3;" d="M327.244,156.689h-43.168c-1.88,0-3.701-1.538-4.046-3.418l-4.888-26.605
							c-0.345-1.88,0.91-3.418,2.79-3.418H321.1c1.88,0,3.701,1.538,4.046,3.418l4.888,26.605
							C330.38,155.151,329.124,156.689,327.244,156.689z"/>
					</g>
					<path style="opacity:0.3;fill:#407BFF;" d="M326.233,156.689h-42.156c-1.88,0-3.701-1.538-4.046-3.418l-4.888-26.605
						c-0.345-1.88,0.91-3.418,2.79-3.418h42.157c1.88,0,3.701,1.538,4.046,3.418l4.888,26.605
						C329.368,155.151,328.113,156.689,326.233,156.689z"/>
				</g>
			</g>
			<path style="fill:#CE7A63;" d="M345.853,142.213l2.161,2.271c2.024,4.808-4.607,6.341-4.607,6.341l-2.891,2.025
				c-0.98,0.687-2.403,0.461-3.364-0.533l-2.412-2.496c-1.1-1.137-1.199-2.861-0.22-3.82l2.2-2.156
				c0.64-0.627,1.426-1.086,2.286-1.336l3.827-1.112C343.914,141.084,345.078,141.399,345.853,142.213z"/>
			<path style="fill:#CE7A63;" d="M334.533,92.98c0.264-1.097,1.318-2.908,2.629-3.715c0.256-1.334,0.049-2.725-0.734-4.247
				l11.921-9.978c0.743,4.97,2.492,11.601,4.944,13.755c-2.732,2.52-7.754,7.068-14.007,8.131
				C333.032,97.99,333.957,95.377,334.533,92.98z"/>
			<path style="opacity:0.2;" d="M336.652,85.482l10.179-4.243c-1.282,5.176-7.045,9.455-9.584,7.401
				C337.327,87.633,337.145,86.594,336.652,85.482z"/>
			<path style="fill:#263238;" d="M336.057,69.482c0,3.662-2.969,6.631-6.631,6.631c-3.662,0-6.631-2.969-6.631-6.631
				c0-3.662,2.969-6.631,6.631-6.631C333.088,62.851,336.057,65.82,336.057,69.482z"/>
			<path style="fill:#CE7A63;" d="M347.469,65.754c1.562,7.58,2.459,12.761-1.013,17.084c-6.899,8.588-13.164,5.921-16.968-1.059
				c-3.424-6.282-5.404-17.623,1.121-22.508C337.037,54.459,345.907,58.174,347.469,65.754z"/>
			<path style="fill:#263238;" d="M332.583,63.745c-1.535,1.75-5.583,5.417-11.472,2.111c-5.889-3.306-3.495-11.215,0.056-13.745
				c5.144-3.667,10.278-1.366,10.278-1.366s-0.486-4.208,5.431-4.375c5.917-0.167,5.625,4.042,5.625,4.042s7.667-3.19,11.333,2.708
				c3.411,5.488-1.674,9.75-1.674,9.75s5.311,2.284,3.563,7.796c-1.5,4.729-5.806,4.706-5.806,4.706s-5.667,0.397-6.625-3.733
				c-0.958-4.13,0.833-7.186,0.833-7.186S335.042,67.995,332.583,63.745z"/>
			<path style="fill:#263238;" d="M341.292,72.688c-0.008,0-0.017-0.001-0.025-0.001l-1.396-0.143
				c-0.137-0.014-0.237-0.137-0.223-0.274c0.014-0.138,0.14-0.236,0.274-0.223l1.353,0.138l7.063-1.719
				c0.137-0.032,0.269,0.05,0.302,0.184c0.033,0.134-0.049,0.269-0.184,0.302l-7.105,1.729
				C341.331,72.685,341.311,72.688,341.292,72.688z"/>
			<path style="fill:#263238;" d="M351.478,63.646c-0.227,0-0.458-0.012-0.694-0.036c-0.275-0.028-0.475-0.273-0.447-0.548
				c0.028-0.275,0.281-0.478,0.548-0.446c1.567,0.16,2.845-0.309,3.512-1.285c0.521-0.763,0.581-1.708,0.16-2.531
				c-0.126-0.246-0.029-0.547,0.217-0.673c0.247-0.126,0.547-0.029,0.673,0.217c0.583,1.137,0.497,2.498-0.224,3.552
				C354.449,63.026,353.107,63.646,351.478,63.646z"/>
			<path style="fill:#263238;" d="M324.002,68.539c-0.921,0-1.927-0.133-3.025-0.436c-2.838-0.782-4.643-2.839-4.951-5.644
				c-0.322-2.935,1.124-6.045,3.365-7.233c0.244-0.129,0.547-0.037,0.676,0.207c0.129,0.244,0.036,0.547-0.207,0.676
				c-1.899,1.007-3.12,3.69-2.839,6.241c0.153,1.397,0.906,3.876,4.223,4.79c5.861,1.614,8.813-2.16,10.051-4.554
				c0.127-0.245,0.428-0.342,0.674-0.214c0.246,0.127,0.341,0.429,0.215,0.674C331.037,65.259,328.567,68.539,324.002,68.539z"/>
			<path style="fill:#263238;" d="M335.099,80.009c-0.341,0.145-0.713,0.268-1.12,0.36c-0.11,0.025-0.213-0.048-0.231-0.163
				c-0.018-0.114,0.054-0.226,0.167-0.252c2.971-0.673,4.024-3.155,4.034-3.18c0.045-0.11,0.164-0.165,0.266-0.124
				c0.102,0.042,0.148,0.164,0.103,0.273C338.278,77.021,337.432,79.02,335.099,80.009z"/>
			<path style="opacity:0.2;" d="M338.07,69.85c0,0,1.241-1.077,2.59-0.838C339.346,69.748,338.07,69.85,338.07,69.85z"/>
			<path style="opacity:0.2;" d="M338.311,70.453c0,0,1.312-0.726,2.463-0.149C339.463,70.681,338.311,70.453,338.311,70.453z"/>
			<path style="opacity:0.2;" d="M327.829,72.736c0,0-0.855-0.476-1.151,0.07C327.401,73.006,327.829,72.736,327.829,72.736z"/>
			<path style="opacity:0.2;" d="M327.931,73.343c0,0-0.718-0.452-0.802,0.266C327.69,73.74,327.931,73.343,327.931,73.343z"/>
			<path style="fill:#CE7A63;" d="M352.158,73.99c-0.606,1.99-2.081,3.51-3.612,4.283c-2.302,1.163-3.974-0.771-3.771-3.201
				c0.183-2.188,1.602-5.429,4.122-5.583C351.381,69.337,352.851,71.715,352.158,73.99z"/>
			<path style="fill:#263238;" d="M336.201,70.781c0.165,0.607-0.025,1.184-0.423,1.288c-0.398,0.104-0.855-0.304-1.02-0.911
				c-0.165-0.607,0.025-1.184,0.424-1.288C335.58,69.766,336.036,70.174,336.201,70.781z"/>
			<path style="fill:#263238;" d="M329.786,72.61c0.165,0.607-0.025,1.184-0.423,1.288c-0.398,0.104-0.855-0.304-1.02-0.911
				c-0.165-0.607,0.025-1.184,0.423-1.288C329.165,71.594,329.621,72.002,329.786,72.61z"/>
			<g>
				<path style="fill:#263238;" d="M326.087,77.151c-0.392,0-0.802-0.229-0.998-0.578l-1.019-1.823
					c-0.125-0.223-0.144-0.47-0.051-0.677c0.089-0.199,0.274-0.342,0.507-0.394l5.201-1.155c0.442-0.098,0.972,0.145,1.201,0.556
					l1.019,1.823c0.125,0.223,0.143,0.47,0.051,0.677c-0.089,0.199-0.274,0.342-0.507,0.394l-5.201,1.155
					C326.225,77.144,326.156,77.151,326.087,77.151z M329.932,73.003c-0.033,0-0.065,0.003-0.096,0.01l-5.201,1.155
					c-0.055,0.012-0.128,0.041-0.159,0.11c-0.027,0.061-0.016,0.144,0.031,0.229l1.019,1.822c0.121,0.217,0.43,0.364,0.656,0.312
					l5.201-1.155c0.055-0.012,0.128-0.041,0.159-0.11c0.027-0.061,0.016-0.144-0.031-0.229l-1.019-1.823
					C330.387,73.138,330.143,73.003,329.932,73.003z"/>
				<path style="fill:#BA4D3C;" d="M331.918,72.672l2.201,4.811c0,0-1.647,1.254-3.103,0.925
					C330.518,75.644,331.918,72.672,331.918,72.672z"/>
				<path style="fill:#263238;" d="M334.71,75.237c-0.392,0-0.802-0.229-0.997-0.578l-1.02-1.822
					c-0.125-0.223-0.143-0.47-0.051-0.677c0.089-0.199,0.274-0.342,0.507-0.394l5.201-1.155c0.446-0.098,0.972,0.146,1.201,0.556
					l1.02,1.822c0.125,0.223,0.144,0.47,0.051,0.677c-0.089,0.199-0.274,0.342-0.507,0.395l0,0l-5.201,1.155
					C334.848,75.23,334.779,75.237,334.71,75.237z M338.555,71.089c-0.033,0-0.065,0.003-0.096,0.01l-5.201,1.155
					c-0.055,0.012-0.128,0.041-0.159,0.11c-0.027,0.061-0.016,0.144,0.031,0.229l1.02,1.823c0.121,0.216,0.426,0.364,0.656,0.312
					l5.201-1.155c0.055-0.012,0.128-0.041,0.159-0.11c0.027-0.061,0.016-0.144-0.031-0.229l-1.02-1.822
					C339.01,71.223,338.766,71.089,338.555,71.089z M340.061,73.816h0.006H340.061z"/>
				<path style="fill:#263238;" d="M331.126,74.196c-0.026,0-0.053-0.004-0.08-0.013c-0.128-0.045-0.198-0.178-0.158-0.307
					c0.014-0.044,0.359-1.082,2.49-0.659c0.135,0.027,0.223,0.158,0.196,0.294c-0.027,0.135-0.156,0.225-0.294,0.196
					c-1.645-0.325-1.915,0.319-1.917,0.325C331.325,74.132,331.228,74.196,331.126,74.196z"/>
			</g>
			<path style="fill:#263238;" d="M337.669,68.579c0.057-0.023,0.109-0.061,0.149-0.113c0.125-0.16,0.096-0.392-0.066-0.518
				c-1.621-1.261-3.246-0.733-3.314-0.71c-0.194,0.065-0.296,0.275-0.229,0.468c0.067,0.192,0.277,0.296,0.47,0.231l0,0
				c0.053-0.017,1.324-0.416,2.618,0.591C337.408,68.613,337.55,68.628,337.669,68.579z"/>
			<path style="fill:#263238;" d="M325.791,71.715c0.115-0.033,0.212-0.12,0.25-0.243c0.487-1.551,1.763-1.932,1.817-1.947
				c0.196-0.056,0.309-0.259,0.253-0.455c-0.057-0.195-0.26-0.31-0.456-0.256c-0.071,0.021-1.712,0.49-2.322,2.433
				c-0.061,0.194,0.048,0.402,0.244,0.464C325.649,71.734,325.723,71.734,325.791,71.715z"/>
		</g>
	</g>
</g>
<g id="Folder">
	<g>
		<path style="opacity:0.2;" d="M252.778,337.444v65.753c0,7.173,5.868,13.041,13.041,13.041h16.014l-5.722-72.571L252.778,337.444z
			"/>
		<g>
			<path style="fill:#407BFF;" d="M228.939,338.005l-6.391,7.972c-1.162,1.449-2.909,2.309-4.694,2.309H160.14
				c-3.063,0-5.752,2.483-6.005,5.546l-5.084,61.433c-0.253,3.063,2.024,5.546,5.087,5.546h112.997c3.063,0,5.752-2.483,6.005-5.546
				l6.125-74.022c0.253-3.063-2.024-5.546-5.087-5.546h-40.546C231.848,335.696,230.101,336.556,228.939,338.005z"/>
			<path style="opacity:0.3;" d="M228.939,338.005l-6.391,7.972c-1.162,1.449-2.909,2.309-4.694,2.309H160.14
				c-3.063,0-5.752,2.483-6.005,5.546l-5.084,61.433c-0.253,3.063,2.024,5.546,5.087,5.546h112.997c3.063,0,5.752-2.483,6.005-5.546
				l6.125-74.022c0.253-3.063-2.024-5.546-5.087-5.546h-40.546C231.848,335.696,230.101,336.556,228.939,338.005z"/>
		</g>
		<path style="fill:#407BFF;" d="M206.12,342.375l-5.181,7.551c-0.942,1.373-2.559,2.187-4.344,2.187h-47.466
			c-3.063,0-5.375,2.352-5.163,5.253l4.243,58.19c0.212,2.901,2.866,5.254,5.929,5.254h112.997c3.063,0,5.375-2.352,5.163-5.254
			l-5.113-70.115c-0.212-2.901-2.866-5.254-5.929-5.254h-50.793C208.678,340.188,207.062,341.002,206.12,342.375z"/>
	</g>
</g>
</svg>
